<?xml version="1.0" encoding="utf-8"?>
<!-- Generator: Adobe Illustrator 15.1.0, SVG Export Plug-In . SVG Version: 6.00 Build 0)  -->
<!DOCTYPE svg PUBLIC "-//W3C//DTD SVG 1.1//EN" "http://www.w3.org/Graphics/SVG/1.1/DTD/svg11.dtd">
<svg version="1.1" id="Layer_1" xmlns="http://www.w3.org/2000/svg" xmlns:xlink="http://www.w3.org/1999/xlink" x="0px" y="0px"
	 width="716.184px" height="290px" viewBox="0 5.792 716.184 290" enable-background="new 0 5.792 716.184 290"
	 xml:space="preserve">
<text transform="matrix(1 0 0 1 124.6938 257.77)" font-family="'EurostileRegular'" font-size="235.2552" letter-spacing="-7">EdWel</text>
<path fill="#2980B9" d="M29.82,194.987C9.228,125.055,49.224,51.672,119.157,31.083c62.648-18.448,128.037,11.752,155.787,68.518
	C248.685,32.188,174.737-5.042,104.063,15.768C29.469,37.733-13.193,116.007,8.77,190.597
	c20.812,70.678,92.172,112.649,163.057,98.187C109.08,296.221,48.264,257.631,29.82,194.987z"/>
<path fill="#3498DB" d="M61.846,198.75C44.33,139.262,78.354,76.836,137.844,59.32c53.292-15.691,108.915,10.002,132.522,58.286
	c-22.337-57.345-85.242-89.016-145.361-71.312c-63.454,18.684-99.747,85.27-81.064,148.723
	c17.704,60.124,78.411,95.827,138.708,83.524C129.272,284.868,77.539,252.042,61.846,198.75z"/>
</svg>
